<svg version="1" xmlns="http://www.w3.org/2000/svg" width="290.667" height="290.667" viewBox="0 0 218.000000 218.000000"><path d="M133.7 21.4c-7.3 12-13.8 20.4-39.9 51.5C71 100 62.1 110 60.6 110c-1.2-.1-12.2-2.3-24.6-4.9-13.2-2.9-22.9-4.5-23.4-4-1.2 1.1-3.6-.8 20.9 16.4 11.6 8.1 21.6 15.2 22.3 15.9 1 1-.1 2.3-5.3 6.7-10.4 8.5-10.8 8.9-10.2 9.6.4.3 8.1-.4 17.1-1.7l16.5-2.3 4.8 3.6 4.9 3.6 9.4 24.8c5.1 13.6 10 26 10.7 27.5l1.4 2.8h13.4c10.2 0 13.5-.3 13.5-1.3 0-.6-3.1-4.8-6.9-9.1l-6.9-7.9 8.3-12.6 8.3-12.6 9.8-63.8 9.9-63.7h14.2c7.9 0 14.3-.3 14.3-.8 0-.4-3.3-7-7.4-14.7l-7.3-14-12.9-.2-12.9-.3-8.8 14.4zm8.3 81.2c-4.9 31.8-9.2 58.9-9.5 60.1-.4 1.5-1 2-2.5 1.6-1.1-.3-1.8-.9-1.5-1.3.2-.4-.7-.5-2.2-.2-1.6.3-2.4.1-2-.5.4-.6-.4-.8-2-.5-1.9.4-2.4.2-1.8-.8.5-.9.4-1.1-.4-.6-1.4.9-7.3-.3-6.6-1.3.2-.5-.7-.6-2.2-.3-1.6.3-2.4.1-2-.5.4-.6-.4-.8-2-.5-1.9.4-2.4.2-1.8-.8.6-.9.4-1.1-.4-.5-1 .6-17.5-3-19-4.1-.2-.2 14.2-24.6 32-54.3 17.8-29.7 32.5-53.9 32.6-53.7.2.2-3.7 26.3-8.7 58.2zm-51.9 37.1c-3.1 5.1-5.9 9.3-6.4 9.3-.8 0-60.7-42-60.7-42.5 0-.2 16.4 5.1 36.3 11.8l36.4 12.1-5.6 9.3zm30.4 56.2c2 2.2 4.5 5.1 5.6 6.5l2 2.6H108l4.2-6.5c2.4-3.5 4.4-6.5 4.6-6.5.1 0 1.8 1.8 3.7 3.9z"/></svg>