P2
# Affiche le mot "L L"
12 7
255
0   0   0   0   0   0   0   0   0   0   0   0
0 100   0   0   0   0   0 200   0   0   0   0
0 100   0   0   0   0   0 200   0   0   0   0
0 100   0   0   0   0   0 200   0   0   0   0
0 100   0   0   0   0   0 200   0   0   0   0
0 100 100 100   0   0   0 200 200 200   0   0
0   0   0   0   0   0   0   0   0   0   0   0
